<?xml version="1.0" encoding="iso-8859-1"?>
<!-- Uploaded to: SVG Repo, www.svgrepo.com, Generator: SVG Repo Mixer Tools -->
<svg fill="#000000" height="800px" width="800px" version="1.1" id="Layer_1" xmlns="http://www.w3.org/2000/svg" xmlns:xlink="http://www.w3.org/1999/xlink" 
	 viewBox="0 0 512 512" xml:space="preserve">
<g>
	<g>
		<path d="M475.173,126.485h-46.13v-11.351h48.178c5.632,0,10.199-4.566,10.199-10.199v-36.87c0-5.633-4.567-10.199-10.199-10.199
			h-58.378c-5.632,0-10.199,4.566-10.199,10.199v58.42h-153.71v-11.351h48.178c5.632,0,10.199-4.566,10.199-10.199v-36.87
			c0-5.633-4.567-10.199-10.199-10.199h-58.377c-5.632,0-10.199,4.566-10.199,10.199v58.42H78.776v-11.351h48.178
			c5.632,0,10.199-4.566,10.199-10.199v-36.87c0-5.633-4.567-10.199-10.199-10.199H68.576c-5.632,0-10.199,4.566-10.199,10.199
			v58.42h-21.55C16.521,126.485,0,143.006,0,163.313c0,18.88,14.283,34.478,32.61,36.578l22.225,244.964
			c0.476,5.255,4.881,9.278,10.157,9.278h382.016c5.276,0,9.681-4.024,10.157-9.278l22.225-244.964
			c18.326-2.1,32.609-17.699,32.609-36.578C512,143.006,495.479,126.485,475.173,126.485z M254.933,78.264h37.979v16.472h-37.979
			V78.264z M78.776,78.264h37.979v16.472H78.776V78.264z M429.042,78.264h37.98v16.472h-37.98V78.264z M63.158,310.836
			L53.114,200.141h94.117l-41.173,110.695H63.158z M65.008,331.234h33.464L87.392,361.02h-19.68L65.008,331.234z M71.57,403.558
			l-2.008-22.139h10.243L71.57,403.558z M151.328,433.736H82.11l19.46-52.318h49.758V433.736z M151.328,361.02h-42.171
			l11.078-29.786h31.092V361.02z M151.328,310.836h-23.505l23.505-63.192V310.836z M171.726,433.736v-52.318h51.032l19.46,52.318
			H171.726z M218.269,310.836l-6.544-17.594c-1.963-5.28-7.835-7.965-13.115-6.003c-5.279,1.963-7.968,7.836-6.004,13.115
			l3.899,10.483h-24.779V200.14h165.227l-41.174,110.696H218.269z M288.192,331.234l-11.079,29.786h-40.177l-11.079-29.786H288.192z
			 M204.092,331.234l11.079,29.786h-43.445v-29.786H204.092z M257.025,415.029l-12.501-33.61h25.002L257.025,415.029z
			 M341.048,433.736H271.83l19.46-52.318h49.758V433.736z M341.049,361.02h-42.172l11.079-29.786h31.092V361.02z M341.049,310.836
			h-23.505l23.505-63.192V310.836z M361.448,433.736v-52.318h51.031l19.46,52.318H361.448z M393.813,331.234l11.078,29.786h-43.444
			v-29.786H393.813z M361.448,310.836v-66.615l24.778,66.615H361.448z M440.832,399.132l-6.589-17.713h8.195L440.832,399.132z
			 M444.289,361.02h-17.633l-11.079-29.786h31.416L444.289,361.02z M448.842,310.836H407.99l-41.173-110.695h92.069L448.842,310.836
			z M475.172,179.742H36.827c-9.059,0-16.429-7.37-16.429-16.429c0-9.059,7.371-16.429,16.429-16.429h438.344
			c9.059,0,16.429,7.37,16.429,16.429C491.601,172.372,484.23,179.742,475.172,179.742z"/>
	</g>
</g>
<g>
	<g>
		<path d="M201.254,267.773l-2.04-5.261c-2.036-5.252-7.943-7.858-13.196-5.822c-5.253,2.036-7.859,7.944-5.822,13.196l2.04,5.261
			c1.566,4.04,5.423,6.515,9.511,6.515c1.226,0,2.473-0.223,3.685-0.693C200.684,278.933,203.291,273.024,201.254,267.773z"/>
	</g>
</g>
</svg>